<?xml version="1.0" encoding="UTF-8" standalone="no"?>
<svg width="20px" height="28px" viewBox="0 0 20 28" version="1.1" xmlns="http://www.w3.org/2000/svg" xmlns:xlink="http://www.w3.org/1999/xlink">
    <!-- Generator: Sketch 41.2 (35397) - http://www.bohemiancoding.com/sketch -->
    <title>Shape</title>
    <desc>Created with Sketch.</desc>
    <defs></defs>
    <g id="Contact" stroke="none" stroke-width="1" fill="none" fill-rule="evenodd">
        <g id="Desktop-HD" transform="translate(-1146.000000, -1244.000000)" fill="#FFFFFF">
            <g id="Footer" transform="translate(0.000000, 1222.000000)">
                <g id="Socials" transform="translate(1102.000000, 22.000000)">
                    <path d="M50.8249212,0.00451749625 C50.4579899,-0.0182649429 50.081886,0.0455261199 49.7241274,0.186779342 C49.0453046,0.460172111 48.5820542,1.05707995 48.3664818,1.64487411 C48.1509094,2.23266827 48.0912834,2.83413236 48.10963,3.46749257 C48.1417367,4.73421298 48.462801,6.1467417 48.8434924,7.51370554 C49.155384,8.63461648 49.5131426,9.68262151 49.8342068,10.5757046 C49.6415685,10.5392522 49.4443427,10.5301397 49.2471168,10.5392522 C48.8251459,10.5620346 48.4123488,10.6987316 48.0362437,10.9402282 C47.1189156,11.5280224 46.5639324,12.4621152 46.4584393,13.3460846 C46.3621202,14.1389242 46.5501722,14.8588579 46.7886775,15.4967744 C46.1557217,15.5605666 45.5365249,15.7701672 45.0641006,16.2258218 C44.3073052,16.9594254 44,18.030214 44,19.2878208 C44,23.4297209 46.219934,25.8583609 48.5866406,26.9428183 C50.9533471,28.0272769 53.4393069,27.999937 54.3841543,27.999937 C55.4115618,27.999937 57.7828546,27.9133623 59.9615092,26.4324851 C62.1401638,24.9516079 63.9610598,22.0217485 63.9610598,17.1006786 C63.9610598,16.6769201 64.2821252,14.7768407 63.0804248,13.1638228 C62.8235729,12.8175253 62.4749882,12.5076801 62.0897104,12.2160612 C62.3236294,11.4551177 62.883199,9.61883044 63.3372767,7.3314437 C63.6170615,5.91891497 63.8372202,4.48360265 63.8142873,3.24877835 C63.8005271,2.62908808 63.7454874,2.0595201 63.5207423,1.49906463 C63.2959972,0.938609164 62.754773,0.30980638 62.0163242,0.150326973 C61.2687015,-0.0137086883 60.4981459,0.136657043 59.888123,0.478398295 C59.2781001,0.820139548 58.8286087,1.31224653 58.420398,1.86358832 C57.6085629,2.97082933 57.0077127,4.36513186 56.5490486,5.76399182 C56.3931034,6.24242888 56.2738502,6.71630968 56.1454242,7.18563422 C55.9436121,6.6206225 55.7280397,6.05561078 55.484948,5.47237287 C54.897858,4.05984415 54.2098625,2.6700967 53.3567468,1.60842174 C52.9301895,1.07530613 52.4623516,0.605981587 51.8523287,0.296136449 C51.5450235,0.141214464 51.1918524,0.0272999354 50.8249212,0.00451749625 Z M50.6414556,2.30101675 C50.668976,2.30557301 50.7102555,2.33291287 50.7882281,2.37392149 C50.9441744,2.45138248 51.2239592,2.69743656 51.5220905,3.06651651 C52.1137669,3.80467756 52.7742431,5.03950069 53.3200537,6.34722973 C54.017223,8.01036878 54.4896473,9.45479478 54.7877786,10.5027998 L54.7143924,10.5027998 C53.8933834,10.5027998 53.1411744,10.8399848 52.6228843,11.3412043 C52.3522722,10.6850617 51.6642767,8.98547024 51.0817731,6.89401527 C50.728602,5.6227386 50.4809228,4.34234943 50.4579899,3.4310402 C50.4442297,2.97538558 50.5084433,2.61086189 50.5680693,2.44682623 C50.5955897,2.36480898 50.6093488,2.3465828 50.6047624,2.33746912 C50.6185226,2.33291287 50.6276953,2.30101675 50.6414556,2.30101675 Z M61.2090754,2.4832786 L61.3558479,2.4832786 C61.4017149,2.64731426 61.4567546,2.89792459 61.4659273,3.28523072 C61.4842739,4.2010962 61.287048,5.52705142 61.0256098,6.8575629 C60.6586786,8.70752121 60.241294,10.2020684 59.9615092,11.1589425 C59.3147932,10.9584544 58.5717568,10.7944188 57.7232286,10.6850617 C57.9021079,9.71451762 58.2139994,8.24275293 58.7873292,6.49303921 C59.2047138,5.21720629 59.7413505,3.99605192 60.2917473,3.24877835 C60.5669458,2.87514215 60.828384,2.62908808 61.0256098,2.51973097 C61.0898234,2.4832786 61.1540358,2.4832786 61.2090754,2.4832786 Z M54.7143924,12.8357514 C59.0441811,12.8357514 60.6357457,13.8199654 61.2090754,14.5854652 C61.7824052,15.3509649 61.6126998,16.1438045 61.6126998,17.1006786 C61.6126998,21.4795192 60.1908418,23.4479471 58.6405567,24.5005096 C57.0902728,25.553072 55.23727,25.6669854 54.3841543,25.6669854 C53.4484796,25.6669854 51.3432113,25.6396467 49.5773549,24.8285809 C47.8114986,24.0175163 46.34836,22.6778911 46.34836,19.2878208 C46.34836,18.4129639 46.5868653,17.9937617 46.7152912,17.8661784 C46.8437172,17.7385951 46.9721431,17.6884728 47.4124606,17.7932736 C48.1233902,17.9618656 49.3709564,18.81394 50.5313762,20.3449395 C50.8019883,20.7003507 51.0496663,21.0831005 51.3019318,21.5114153 C51.2285455,21.59799 51.0083868,21.7301295 50.8616143,21.7301295 C50.682735,21.7301295 50.5130296,21.675451 50.2011381,21.4020582 C49.8892465,21.1286654 49.508555,20.6046623 49.1003443,19.9804158 L47.1189156,21.2562487 C47.5775797,21.9625137 48.0408301,22.5958739 48.6233337,23.1153195 C49.2058373,23.6347664 49.9901532,24.0630811 50.8616143,24.0630811 C51.7605959,24.0630811 52.5540844,23.6484351 53.0998949,23.0059624 C53.2420811,22.8419268 53.265014,22.6004301 53.3567468,22.3862722 C53.5264522,22.8647092 53.723678,23.3021376 53.9438368,23.6256527 C54.439194,24.3501438 55.0446305,24.7192238 55.0446305,24.7192238 L56.3288899,22.7872482 C56.3288899,22.7872482 56.1545981,22.705231 55.8885724,22.3133674 C55.6225478,21.921505 55.3381755,21.2835886 55.3381755,20.2720347 C55.3381755,19.9075111 55.3932152,19.6113358 55.5216411,19.3607255 C55.7326272,18.9506369 56.1041448,18.6681305 56.5123555,18.4129639 C57.1682454,18.0028753 57.833308,17.8661784 57.833308,17.8661784 C58.3561856,17.752265 58.7368759,17.2966104 58.7552224,16.7634948 C58.773569,16.230378 58.420398,15.7564972 57.9066942,15.6061315 C57.9066942,15.6061315 56.0445187,15.0547897 54.5676199,14.6219175 C54.4758871,14.5945788 54.3841543,14.5399003 54.310768,14.4761081 C54.2832488,14.4533256 54.2603147,14.4305432 54.2373818,14.4032033 C54.1869284,14.3211861 54.145649,14.2300551 54.0906093,14.1480367 C54.0263969,13.9794448 53.9988765,13.7744005 54.017223,13.5647988 C54.0401559,13.3141885 54.1364763,13.1273704 54.2373818,13.0180133 C54.3382884,12.9086562 54.4208474,12.8357514 54.7143924,12.8357514 Z M49.2838099,12.8722038 C49.3342633,12.8403077 49.3388496,12.8403077 49.6140481,12.9451085 C49.8892465,13.0499094 50.329564,13.3324147 50.7882281,13.783513 C51.7055562,14.6857098 52.6916842,16.1939257 53.3200537,17.7932736 C53.4668262,18.166911 53.4347194,18.2580419 53.3934399,18.3400592 C53.3521604,18.4220776 53.2374947,18.535991 53.0265087,18.6316781 C52.8155238,18.7273653 52.5128049,18.7820439 52.3293393,18.7774876 C52.1458737,18.7729314 52.1733941,18.6225656 52.4027255,18.9232971 L52.3293393,18.9597495 C51.6275836,17.9983179 50.9074813,17.214592 50.1277518,16.6267978 C50.1277518,16.6267978 49.4076495,15.7747234 49.0269581,14.8406317 C48.8343198,14.3713072 48.7701062,13.9019838 48.8067993,13.6012512 C48.8434924,13.3005197 48.8847719,13.1273704 49.2838099,12.8722038 Z" id="Shape"></path>
                </g>
            </g>
        </g>
    </g>
</svg>