<svg xmlns="http://www.w3.org/2000/svg" viewBox="-139 -583 71 100">
  <path fill="#FFFFFF" fill-rule="evenodd" d="M-115.112776-582.983866c-1.284259-.081366-2.600623.146459-3.852778.650935-2.37588.976403-3.997256 3.108216-4.75176 5.207481-.754503 2.099265-.963194 4.247351-.898981 6.509352.112374 4.524001 1.236099 9.568747 2.568519 14.450761 1.09162 4.003253 2.343775 7.746128 3.4675 10.93571-.674234-.130187-1.364525-.162731-2.054815-.130187-1.476898.081366-2.921688.56957-4.238056 1.432058-3.210648 2.099265-5.15309 5.43531-5.522315 8.592344-.337117 2.83157.321065 5.402762 1.155833 7.681035-2.215345.227829-4.382534.976403-6.036019 2.603741C-137.924432-522.430624-139-518.606378-139-514.114926c0 14.792501 7.769769 23.466215 16.053242 27.339277 8.283473 3.873066 16.984332 3.775424 20.291298 3.775424 3.5959261 0 11.8954512-.309195 19.5207422-5.598042 7.625291-5.288848 13.9984271-15.752631 13.9984271-33.327881 0-1.513423 1.123729-8.299421-3.0822225-14.060199-.8989815-1.236777-2.1190279-2.343367-3.4675003-3.384863.8187164-2.717655 2.7772099-9.275824 4.3664819-17.445062.9792467-5.044746 1.7498023-10.170861 1.6695371-14.580948-.0481607-2.21318-.2407996-4.247351-1.0274075-6.248978-.7866078-2.001626-2.6808924-4.247351-5.2654633-4.81692-2.6166795-.585842-5.3136242-.048821-7.4487043 1.171683-2.1350802 1.220505-3.7083 2.97803-5.1370375 4.947108-2.8414228 3.954432-4.9443985 8.934084-6.5497227 13.930012-.5458082 1.708704-.9631946 3.401135-1.4126853 5.077294-.7063427-2.017899-1.4608461-4.035798-2.3116669-6.11879-2.054815-5.044746-4.462799-10.008129-7.448704-13.799826-1.492951-1.903984-3.130383-3.580143-5.265464-4.686733-1.075568-.553293-2.311667-.96013-3.595926-1.041496zm-.64213 8.201783c.096322.016272.2408.113915.513704.260374.545812.276646 1.525059 1.155411 2.568519 2.473554 2.070867 2.636289 4.382534 7.046372 6.292871 11.716833 2.440093 5.939782 4.093577 11.098446 5.137037 14.841321h-.256852c-2.873531 0-5.506263 1.204232-7.320278 2.994302-.947142-2.343367-3.355127-8.413336-5.393889-15.882818-1.236099-4.540274-2.102976-9.113092-2.183241-12.367768-.048161-1.627338.176586-2.929208.385278-3.51505.096321-.292919.144478-.358012.128426-.390561.04816-.016272.080265-.130187.128425-.130187zm36.9866701.650935h.5137037c.1605345.585842.3531734 1.480879.3852778 2.864115.064213 3.270948-.6260775 8.006502-1.5411112 12.758329-1.2842594 6.606994-2.7451054 11.944662-3.7243522 15.36207-2.2635061-.716029-4.8641333-1.30187-7.8339821-1.692432.6260775-3.466228 1.7176979-8.722531 3.7243522-14.971508 1.460846-4.556546 3.3390743-8.917812 5.2654634-11.586646.9631945-1.334415 1.8782282-2.21318 2.5685187-2.603741.2247474-.130187.4494908-.130187.6421297-.130187zm-22.7313911 36.973117c15.1542608 0 20.7247368 3.51505 22.7313911 6.248978 2.0066542 2.733928 1.4126853 5.565498 1.4126853 8.982905 0 15.638717-4.976503 22.668816-10.4025009 26.427968-5.4259937 3.759151-11.9115035 4.165985-14.8974085 4.165985-3.274861 0-10.643301-.097638-16.823798-2.994302-6.180497-2.896659-11.301482-7.681035-11.301482-19.788429 0-3.124489.834769-4.621639 1.284259-5.077294.449491-.455655.898982-.634663 2.440093-.260374 2.488254.602114 6.854735 3.645237 10.916205 9.113092.947142 1.269326 1.814015 2.63629 2.696944 4.165985-.256852.309195-1.027407.781122-1.541111.781122-.626077 0-1.220046-.19528-2.311667-1.171683-1.09162-.976403-2.42404-2.847842-3.852778-5.077294l-6.935 4.556546c1.605324 2.522375 3.2267 4.784376 5.265463 6.639539 2.038763 1.855167 4.783868 3.384862 7.833982 3.384862 3.146436 0 5.923645-1.480878 7.833982-3.775423.497652-.585842.577917-1.44833.898982-2.21318.593969 1.708704 1.284259 3.270948 2.054815 4.426359 1.73375 2.587468 3.852778 3.905611 3.852778 3.905611l4.4949076-6.899913s-.6100212-.292918-1.5411113-1.692431c-.931086-1.399509-1.926389-3.677782-1.926389-7.290474 0-1.30187.1926389-2.359639.6421297-3.254676.7384511-1.464602 2.0387627-2.473553 3.4675002-3.384863 2.2956147-1.464602 4.6233337-1.952805 4.6233337-1.952805 1.8300717-.406833 3.1624877-2.034171 3.2267007-3.938156.0642129-1.903988-1.1718857-3.59642-2.9698488-4.13344 0 0-6.5176142-1.969078-11.6867598-3.51505-.321065-.097638-.64213-.292919-.898982-.520748-.096317-.081366-.176587-.162732-.256852-.260374-.176586-.292919-.321065-.618387-.513704-.911309-.224743-.602114-.321064-1.334415-.256851-2.082993.080265-.895037.417386-1.562244.770555-1.952805.353174-.390562.64213-.650936 1.669537-.650936zm-19.007038.130187c.176587-.113914.192639-.113914 1.155833.260374.963195.374289 2.504306 1.383237 4.10963 2.994302 3.210649 3.222131 6.662097 8.608617 8.86139 14.320574.513704 1.334419.40133 1.659887.256852 1.952805-.144478.292923-.545808.699757-1.28426 1.041497-.738447.341739-1.797963.53702-2.440093.520748-.642129-.016273-.545808-.553293.256852.520748l-.256852.130187c-2.456145-3.433684-4.976502-6.232705-7.705556-8.33197 0 0-2.520358-3.043123-3.852778-6.379165-.674234-1.676159-.898981-3.352314-.770555-4.426359.128426-1.074041.272904-1.692431 1.669537-2.603741z"/>
</svg>