<svg xmlns="http://www.w3.org/2000/svg" viewBox="333 -576 100 100">
  <path fill="#FFFFFF" fill-rule="evenodd" d="M383-576c-27.6125 0-50 22.7380449-50 50.7829031C333-501.421075 349.1333333-481.509945 370.8833333-476 370.65-476.685569 370.5-477.481168 370.5-478.467203v-8.679644h-6.2833333c-3.4208334 0-6.4625-1.493864-7.9375-4.269996-1.6375-3.085061-1.9208334-7.803639-5.9791667-10.689801-1.2041667-.960643-.2875-2.056708 1.1-1.908591 2.5625.736352 4.6875 2.522218 6.6875 5.171392 1.9916667 2.653407 2.9291667 3.254338 6.65 3.254338 1.8041667 0 4.5041667-.105798 7.0458333-.512061C373.15-499.626746 375.5125-502.87262 378.4-504.40457c-16.65-1.739315-24.5958333-10.1523492-24.5958333-21.5742705 0-4.9174777 2.0625-9.674143 5.5666666-13.6817604-1.15-3.9779941-2.5958333-12.0905629.4416667-15.1798561 7.4916667 0 12.0208333 4.9344054 13.1083333 6.2674566 3.7333334-1.299196 7.8333334-2.0355481 12.1416667-2.0355481 4.3166667 0 8.4333333.7363521 12.175 2.0440119 1.075-1.3245874 5.6083333-6.2759204 13.1166667-6.2759204 3.05 3.0935251 1.5875 11.2399492.425 15.2094794 3.4833333 3.9991536 5.5333333 8.7431232 5.5333333 13.6521371 0 11.4134575-7.9333333 19.8222595-24.5583333 21.5700385 4.575 2.424883 7.9125 9.238256 7.9125 14.371561v11.570038c0 .440119-.0958334.757512-.1458334 1.134152C419.004167-484.269149 433-503.058824 433-525.2170969 433-553.2619551 410.6125-576 383-576z"/>
</svg>