<?xml version="1.0" encoding="UTF-8" standalone="no"?>
<svg width="28px" height="28px" viewBox="0 0 28 28" version="1.1" xmlns="http://www.w3.org/2000/svg" xmlns:xlink="http://www.w3.org/1999/xlink">
    <!-- Generator: Sketch 41.2 (35397) - http://www.bohemiancoding.com/sketch -->
    <title>Shape</title>
    <desc>Created with Sketch.</desc>
    <defs></defs>
    <g id="Contact" stroke="none" stroke-width="1" fill="none" fill-rule="evenodd">
        <g id="Desktop-HD" transform="translate(-1182.000000, -1244.000000)" fill="#FFFFFF">
            <g id="Footer" transform="translate(0.000000, 1222.000000)">
                <g id="Socials" transform="translate(1102.000000, 22.000000)">
                    <path d="M83.1818182,0 C81.441762,0 80,1.441762 80,3.18181818 L80,24.8181818 C80,26.5582393 81.441762,28 83.1818182,28 L104.818182,28 C106.558239,28 108,26.5582393 108,24.8181818 L108,3.18181818 C108,1.441762 106.558239,0 104.818182,0 L83.1818182,0 Z M83.1818182,2.54545455 L104.818182,2.54545455 C105.181108,2.54545455 105.454545,2.81889236 105.454545,3.18181818 L105.454545,24.8181818 C105.454545,25.1811076 105.181108,25.4545455 104.818182,25.4545455 L83.1818182,25.4545455 C82.8188924,25.4545455 82.5454545,25.1811076 82.5454545,24.8181818 L82.5454545,3.18181818 C82.5454545,2.81889236 82.8188924,2.54545455 83.1818182,2.54545455 Z M86.9204545,4.73295455 C85.7123576,4.73295455 84.7329545,5.71235764 84.7329545,6.92045455 C84.7329545,8.12855145 85.7123576,9.10795455 86.9204545,9.10795455 C88.1285515,9.10795455 89.1079545,8.12855145 89.1079545,6.92045455 C89.1079545,5.71235764 88.1285515,4.73295455 86.9204545,4.73295455 Z M98.4147727,10.5397727 C96.5901985,10.5397727 95.3771304,11.5390622 94.875,12.4886364 L94.7954545,12.4886364 L94.7954545,10.8181818 L91.2159091,10.8181818 L91.2159091,22.9090909 L94.9545455,22.9090909 L94.9545455,16.9431818 C94.9545455,15.3671878 95.267756,13.8409091 97.2215909,13.8409091 C99.1455969,13.8409091 99.1704545,15.6207393 99.1704545,17.0227273 L99.1704545,22.9090909 L102.909091,22.9090909 L102.909091,16.2670455 C102.909091,13.0156256 102.218039,10.5397727 98.4147727,10.5397727 Z M85.0909091,10.8181818 L85.0909091,22.9090909 L88.8693182,22.9090909 L88.8693182,10.8181818 L85.0909091,10.8181818 Z" id="Shape"></path>
                </g>
            </g>
        </g>
    </g>
</svg>