<svg xmlns="http://www.w3.org/2000/svg" viewBox="-590 -574 100 100">
  <path fill="#FFFFFF" fill-rule="evenodd" d="M-578.636364-574C-584.85085-574-590-568.85085-590-562.636364v77.272728C-590-479.149145-584.85085-474-578.636364-474h77.272728C-495.149145-474-490-479.149145-490-485.363636v-77.272728C-490-568.85085-495.149145-574-501.363636-574h-77.272728zm0 9.090909h77.272728c1.296163 0 2.272727.976564 2.272727 2.272727v77.272728c0 1.296163-.976564 2.272727-2.272727 2.272727h-77.272728c-1.296163 0-2.272727-.976564-2.272727-2.272727v-77.272728c0-1.296163.976564-2.272727 2.272727-2.272727zm13.352273 7.8125c-4.314632 0-7.8125 3.497868-7.8125 7.8125s3.497868 7.8125 7.8125 7.8125 7.8125-3.497868 7.8125-7.8125-3.497868-7.8125-7.8125-7.8125zm41.051136 20.738636c-6.516336 0-10.848722 3.568891-12.642045 6.960228h-.284091v-5.965909h-12.784091v43.181818h13.352273v-21.306818c0-5.62855 1.118609-11.079546 8.096591-11.079546 6.87145 0 6.960227 6.356536 6.960227 11.363637v21.022727h13.352273v-23.721591c0-11.612214-2.468041-20.454546-16.051137-20.454546zm-47.585227.994319v43.181818h13.494318v-43.181818h-13.494318z"/>
</svg>