<?xml version="1.0" encoding="UTF-8" standalone="no"?>
<svg width="24px" height="28px" viewBox="0 0 24 28" version="1.1" xmlns="http://www.w3.org/2000/svg" xmlns:xlink="http://www.w3.org/1999/xlink">
    <!-- Generator: Sketch 41.2 (35397) - http://www.bohemiancoding.com/sketch -->
    <title>pdf (1)</title>
    <desc>Created with Sketch.</desc>
    <defs></defs>
    <g id="Home" stroke="none" stroke-width="1" fill="none" fill-rule="evenodd">
        <g id="Desktop-HD" transform="translate(-786.000000, -2090.000000)">
            <g id="pdf-(1)" transform="translate(786.000000, 2090.000000)">
                <g id="Layer_1">
                    <path d="M5.14285714,0 C4.2,0 3.42857143,0.7875 3.42857143,1.75 L3.42857143,26.25 C3.42857143,27.2125 4.2,28 5.14285714,28 L22.2857143,28 C23.2285714,28 24,27.2125 24,26.25 L24,7 L17.1428571,0 L5.14285714,0 Z" id="Shape" fill="#E2E5E7"></path>
                    <path d="M18.8571429,7 L24,7 L17.1428571,0 L17.1428571,5.25 C17.1428571,6.2125 17.9142857,7 18.8571429,7 Z" id="Shape" fill="#B0B7BD"></path>
                    <polygon id="Shape" fill="#CAD1D8" points="24 12.25 18.8571429 7 24 7"></polygon>
                    <path d="M20.5714286,22.75 C20.5714286,23.23125 20.1857143,23.625 19.7142857,23.625 L0.857142857,23.625 C0.385714286,23.625 0,23.23125 0,22.75 L0,14 C0,13.51875 0.385714286,13.125 0.857142857,13.125 L19.7142857,13.125 C20.1857143,13.125 20.5714286,13.51875 20.5714286,14 L20.5714286,22.75 Z" id="Shape" fill="#F15642"></path>
                    <g id="Group" transform="translate(3.696429, 16.078125)" fill="#FFFFFF">
                        <path d="M0.0398571429,0.5005 C0.0398571429,0.2695 0.218142857,0.0175 0.505285714,0.0175 L2.08842857,0.0175 C2.97985714,0.0175 3.78214286,0.6265 3.78214286,1.79375 C3.78214286,2.89975 2.97985714,3.51575 2.08842857,3.51575 L0.944142857,3.51575 L0.944142857,4.43975 C0.944142857,4.74775 0.752142857,4.921875 0.505285714,4.921875 C0.279,4.921875 0.0398571429,4.74775 0.0398571429,4.43975 L0.0398571429,0.5005 L0.0398571429,0.5005 Z M0.944142857,0.898625 L0.944142857,2.641625 L2.08842857,2.641625 C2.54785714,2.641625 2.91128571,2.22775 2.91128571,1.79375 C2.91128571,1.304625 2.54785714,0.898625 2.08842857,0.898625 L0.944142857,0.898625 Z" id="Shape"></path>
                        <path d="M5.12442857,4.921875 C4.89814286,4.921875 4.65128571,4.795875 4.65128571,4.48875 L4.65128571,0.5145 C4.65128571,0.263375 4.89814286,0.0805 5.12442857,0.0805 L6.69385714,0.0805 C9.82585714,0.0805 9.75728571,4.921875 6.75557143,4.921875 L5.12442857,4.921875 L5.12442857,4.921875 Z M5.55642857,0.9345 L5.55642857,4.06875 L6.69385714,4.06875 C8.54442857,4.06875 8.62671429,0.9345 6.69385714,0.9345 L5.55642857,0.9345 L5.55642857,0.9345 Z" id="Shape"></path>
                        <path d="M10.8681429,0.9905 L10.8681429,2.102625 L12.6158571,2.102625 C12.8627143,2.102625 13.1095714,2.354625 13.1095714,2.59875 C13.1095714,2.82975 12.8627143,3.01875 12.6158571,3.01875 L10.8681429,3.01875 L10.8681429,4.487875 C10.8681429,4.732875 10.6975714,4.921 10.4575714,4.921 C10.1558571,4.921 9.97157143,4.732875 9.97157143,4.487875 L9.97157143,0.513625 C9.97157143,0.2625 10.1567143,0.079625 10.4575714,0.079625 L12.8635714,0.079625 C13.1652857,0.079625 13.3435714,0.2625 13.3435714,0.513625 C13.3435714,0.737625 13.1652857,0.989625 12.8635714,0.989625 L10.8681429,0.989625 L10.8681429,0.9905 Z" id="Shape"></path>
                    </g>
                    <path d="M19.7142857,23.625 L3.42857143,23.625 L3.42857143,24.5 L19.7142857,24.5 C20.1857143,24.5 20.5714286,24.10625 20.5714286,23.625 L20.5714286,22.75 C20.5714286,23.23125 20.1857143,23.625 19.7142857,23.625 Z" id="Shape" fill="#CAD1D8"></path>
                </g>
            </g>
        </g>
    </g>
</svg>
