<svg xmlns="http://www.w3.org/2000/svg" xmlns:xlink="http://www.w3.org/1999/xlink" viewBox="0 0 344 100" width="344" height="160" preserveAspectRatio="xMidYMid meet">
  <defs>
    <path id="a" d="M0 0h344v160H0z"/>
    <path id="c" d="M19.4193747 6.96097486c-.0430027-.25418681-.2252945-.46348673-.4727763-.5428223-.2474819-.07933555-.5189565-.01550008-.7040732.16555825l-3.582468 3.58400849-2.8382839-5.33314183c-.1138185-.22842622-.3486309-.37303278-.6057313-.37303278-.2571005 0-.4919128.14460656-.6057313.37303278L9.07002245 7.74979969 5.17603542.58178271C4.86451645-.00126174 3.9818794.15307356 3.87803975.80471146L.13981219 24.5723467l10.02052661 5.573219c.6305749.3429942 1.3942984.3429942 2.0248733 0l10.1070596-5.573219-2.872897-17.61137184z"/>
    <path id="e" d="M19.4193747 6.96097486c-.0430027-.25418681-.2252945-.46348673-.4727763-.5428223-.2474819-.07933555-.5189565-.01550008-.7040732.16555825l-3.582468 3.58400849-2.8382839-5.33314183c-.1138185-.22842622-.3486309-.37303278-.6057313-.37303278-.2571005 0-.4919128.14460656-.6057313.37303278L9.07002245 7.74979969 5.17603542.58178271C4.86451645-.00126174 3.9818794.15307356 3.87803975.80471146L.13981219 24.5723467l10.02052661 5.573219c.6305749.3429942 1.3942984.3429942 2.0248733 0l10.1070596-5.573219-2.872897-17.61137184z"/>
    <linearGradient id="f" x1="-3.48177083%" x2="100.833333%" y1="40.5396262%" y2="62.3046481%">
      <stop offset="0%" stop-color="#FFF" stop-opacity=".1"/>
      <stop offset="100%" stop-color="#FFF" stop-opacity="0"/>
    </linearGradient>
    <path id="h" d="M19.4193747 6.96097486c-.0430027-.25418681-.2252945-.46348673-.4727763-.5428223-.2474819-.07933555-.5189565-.01550008-.7040732.16555825l-3.582468 3.58400849-2.8382839-5.33314183c-.1138185-.22842622-.3486309-.37303278-.6057313-.37303278-.2571005 0-.4919128.14460656-.6057313.37303278L9.07002245 7.74979969 5.17603542.58178271C4.86451645-.00126174 3.9818794.15307356 3.87803975.80471146L.13981219 24.5723467l10.02052661 5.573219c.6305749.3429942 1.3942984.3429942 2.0248733 0l10.1070596-5.573219-2.872897-17.61137184z"/>
    <path id="j" d="M19.4193747 6.96097486c-.0430027-.25418681-.2252945-.46348673-.4727763-.5428223-.2474819-.07933555-.5189565-.01550008-.7040732.16555825l-3.582468 3.58400849-2.8382839-5.33314183c-.1138185-.22842622-.3486309-.37303278-.6057313-.37303278-.2571005 0-.4919128.14460656-.6057313.37303278L9.07002245 7.74979969 5.17603542.58178271C4.86451645-.00126174 3.9818794.15307356 3.87803975.80471146L.13981219 24.5723467l10.02052661 5.573219c.6305749.3429942 1.3942984.3429942 2.0248733 0l10.1070596-5.573219-2.872897-17.61137184z"/>
    <path id="l" d="M19.4193747 6.96097486c-.0430027-.25418681-.2252945-.46348673-.4727763-.5428223-.2474819-.07933555-.5189565-.01550008-.7040732.16555825l-3.582468 3.58400849-2.8382839-5.33314183c-.1138185-.22842622-.3486309-.37303278-.6057313-.37303278-.2571005 0-.4919128.14460656-.6057313.37303278L9.07002245 7.74979969 5.17603542.58178271C4.86451645-.00126174 3.9818794.15307356 3.87803975.80471146L.13981219 24.5723467l10.02052661 5.573219c.6305749.3429942 1.3942984.3429942 2.0248733 0l10.1070596-5.573219-2.872897-17.61137184z"/>
    <path id="n" d="M19.4193747 6.96097486c-.0430027-.25418681-.2252945-.46348673-.4727763-.5428223-.2474819-.07933555-.5189565-.01550008-.7040732.16555825l-3.582468 3.58400849-2.8382839-5.33314183c-.1138185-.22842622-.3486309-.37303278-.6057313-.37303278-.2571005 0-.4919128.14460656-.6057313.37303278L9.07002245 7.74979969 5.17603542.58178271C4.86451645-.00126174 3.9818794.15307356 3.87803975.80471146L.13981219 24.5723467l10.02052661 5.573219c.6305749.3429942 1.3942984.3429942 2.0248733 0l10.1070596-5.573219-2.872897-17.61137184z"/>
  </defs>
  <g fill="none" fill-rule="evenodd">
    <mask id="b" fill="#fff">
      <use xlink:href="#a"/>
    </mask>
    <use fill="#ECEEF1" xlink:href="#a"/>
    <g mask="url(#b)">
      <path fill="#000" d="M183.944444 140.7055552h105.111111v55.1833333H183.944444z"/>
      <path fill="#FFF" d="M183.944444 140.7055552h105.111111v55.1833333H183.944444z"/>
      <text fill="#000" font-family="AvenirNext-Regular, Avenir Next" font-size="3.82222222" transform="translate(187.766666 156.233333)">
        <tspan x="0" y="4">Aug 3rd, 2018</tspan>
      </text>
      <text fill="#000" font-family="AvenirNext-Bold, Avenir Next" font-size="5.73333333" font-weight="bold" transform="translate(186.944444 144.483333)">
        <tspan x=".82222222" y="6.0444444">Blog Post Title</tspan>
      </text>
      <g transform="translate(183.944444 102.483333)">
        <rect width="105.111111" height="38.2222222" fill="#000" rx=".95999998"/>
        <path fill="#FFF" fill-opacity=".2" d="M60.7471527 10.78319688c-.0430026-.25418681-.2252944-.46348673-.4727763-.54282228-.2474819-.07933557-.5189565-.01550008-.7040731.16555823l-3.5824681 3.58400847-2.8382839-5.33314179c-.1138185-.22842624-.3486309-.37303278-.6057313-.37303278-.2571004 0-.4919128.14460654-.6057313.37303278l-1.54028823 2.91522221-3.89398701-7.16801698c-.31151897-.58304445-1.19415604-.42870916-1.29799569.22292875L41.46759022 28.3945687h-.0173066l.0173066.0171485.10383966.0514451L55.9705286 14.161425l3.5997747-3.56686013c.1851166-.18105833.4565912-.24489382.7040731-.16555825.2474819.07933555.4297737.28863549.4727763.54282228l2.8382839 17.4398883.0346131-.0171485-2.872897-17.61137182zM41.50220344 28.3602721l3.72092095-23.56185495c.10383965-.6516379.9864767-.8059732 1.29799566-.22292875l3.87668042 7.16801697 1.54028823-2.9152222c.1190771-.2272416.355975-.36985068.6143846-.36985068.2584096 0 .4953075.14260908.6143846.36985068l2.7690575 5.21310323-14.43371196 14.3188857z"/>
        <path fill="#A52714" d="M53.5129901 33.7963041c-.6305749.3429942-1.3942984.3429942-2.0248733 0l-10.00321997-5.5560707-.0173066.1543353 10.02052657 5.573219c.6305749.3429942 1.3942984.3429942 2.0248733 0l10.1070596-5.573219-.0173066-.1543353-10.089753 5.5560707z" opacity=".2"/>
        <g transform="translate(41.327778 3.822222)">
          <mask id="d" fill="#fff">
            <use xlink:href="#c"/>
          </mask>
          <path d="M-5.39830269-1.15020226H27.8303866V31.7746604H-5.39830269z" mask="url(#d)"/>
        </g>
        <g transform="translate(41.327778 3.822222)">
          <mask id="g" fill="#fff">
            <use xlink:href="#e"/>
          </mask>
          <path fill="url(#f)" d="M19.4193747 6.96097486c-.0430027-.25418681-.2252945-.46348673-.4727763-.5428223-.2474819-.07933555-.5189565-.01550008-.7040732.16555825l-3.582468 3.58400849-2.8382839-5.33314183c-.1138185-.22842622-.3486309-.37303278-.6057313-.37303278-.2571005 0-.4919128.14460656-.6057313.37303278L9.07002245 7.74979969 5.17603542.58178271C4.86451645-.00126174 3.9818794.15307356 3.87803975.80471146L.13981219 24.5723467l10.02052661 5.573219c.6305749.3429942 1.3942984.3429942 2.0248733 0l10.1070596-5.573219-2.872897-17.61137184z" mask="url(#g)"/>
        </g>
        <g transform="translate(41.327778 3.822222)">
          <mask id="i" fill="#fff">
            <use xlink:href="#h"/>
          </mask>
          <path fill="#FFA000" d="M.13981222 24.5723467L3.8953464.8047115c.10383965-.65163792.9864767-.8059732 1.29799566-.22292876l3.87668042 7.16801698 1.54028823-2.91522221c.1190771-.22724159.355975-.36985068.6143846-.36985068.2584096 0 .4953075.14260909.6143846.36985068L22.2922717 24.5723467H.13981222z" mask="url(#i)"/>
        </g>
        <g transform="translate(41.327778 3.822222)">
          <mask id="k" fill="#fff">
            <use xlink:href="#j"/>
          </mask>
          <path fill="#F57C00" d="M13.0851558 15.3122291L9.05271588 7.74979967.13981222 24.5723467z" mask="url(#k)"/>
        </g>
        <g transform="translate(41.327778 3.822222)">
          <mask id="m" fill="#fff">
            <use xlink:href="#l"/>
          </mask>
          <path fill="#FFCA28" d="M22.2922717 24.5723467L19.4193746 6.96097486c-.0430026-.25418681-.2252944-.46348674-.4727763-.5428223-.2474819-.07933556-.5189565-.01550007-.7040731.16555824L.13981213 24.5723467l10.02052667 5.573219c.6305749.3429942 1.3942983.3429942 2.0248732 0l10.1070597-5.573219z" mask="url(#m)"/>
        </g>
        <g transform="translate(41.327778 3.822222)">
          <mask id="o" fill="#fff">
            <use xlink:href="#n"/>
          </mask>
          <path fill="url(#f)" d="M40.2863725 6.98032489c-.0430026-.25418681-.2252944-.46348673-.4727763-.5428223-.2474819-.07933555-.5189565-.01550008-.7040731.16555825L35.527055 10.1870693l-2.8382839-5.3331418c-.1138185-.22842622-.3486309-.37303278-.6057313-.37303278-.2571004 0-.4919128.14460656-.6057313.37303278l-1.5402882 2.91522222-3.893987-7.16801698c-.311519-.58304445-1.1941561-.42870915-1.2979957.22292875L21.00681 24.5916967l10.0205267 5.573219c.6305749.3429942 1.3942983.3429942 2.0248732 0l10.1070596-5.573219-2.872897-17.61137181z" mask="url(#o)"/>
        </g>
      </g>
      <path fill="#000" d="M54.944444 140.7055552h105.111111v55.1833333H54.944444z"/>
      <path fill="#FFF" d="M54.944444 140.7055552h105.111111v55.1833333H54.944444z"/>
      <text fill="#000" font-family="AvenirNext-Regular, Avenir Next" font-size="3.82222222" transform="translate(58.766666 156.233333)">
        <tspan x="0" y="4">Aug 3rd, 2018</tspan>
      </text>
      <text fill="#000" font-family="AvenirNext-Bold, Avenir Next" font-size="5.73333333" font-weight="bold" transform="translate(57.944444 144.483333)">
        <tspan x=".82222222" y="6.0444444">Blog Post Title</tspan>
      </text>
      <g transform="translate(54.944444 102.483333)">
        <rect width="105.111111" height="38.2222222" fill="#000" rx=".95999998"/>
        <g fill="#61DAFB" transform="translate(35.355556 3.822222)">
          <path d="M34.3772591 15.2888889c0-2.274091-2.8478617-4.4292296-7.2141165-5.76569541 1.0075973-4.4502212.5597763-7.990806-1.413435-9.12435291C25.2948894.13294686 24.763102.0069972 24.1823341.0069972v1.56037631c.3218713 0 .5807679.06297482.7976812.18192728.9516196.54578184 1.3644546 2.62395118 1.0425832 5.29688278-.0769692.6577371-.2029189 1.35046021-.3568573 2.05717773-1.3714519-.33586575-2.8688533-.59476227-4.443224-.76269514-.9446225-1.29448259-1.9242309-2.47001271-2.9108365-3.49860158 2.2810882-2.12015255 4.4222323-3.28168828 5.8776506-3.28168828V0c-1.9242309 0-4.443224 1.37145182-6.990206 3.75050089-2.5469819-2.36505467-5.065975-3.72251208-6.9902059-3.72251208v1.56037631c1.4484211 0 3.5965624 1.15453852 5.8776506 3.26069666-.9796084 1.02858887-1.9592168 2.19712179-2.8898449 3.49160438-1.5813679.16793287-3.0787693.42682939-4.45022116.76969234-.16093567-.69972031-.27988813-1.37844902-.36385456-2.02918891-.32886855-2.6729316.07696923-4.75110094 1.02159166-5.30387999.20991609-.12594966.48280701-.18192728.80467836-.18192728V.03498602c-.58776506 0-1.1195525.12594965-1.58136791.39184337C6.6613374 1.5603763 6.2205136 5.0939639 7.23510806 9.5301907 2.8828477 10.8736537.04898042 13.0217951.04898042 15.2888889c0 2.274091 2.84786169 4.4292296 7.21411645 5.7656954-1.00759725 4.4502212-.55977625 7.990806 1.41343504 9.1243529.4548182.2658937.98660564.3918434 1.57437069.3918434 1.9242309 0 4.443224-1.3714518 6.990206-3.7505009 2.5469819 2.3650547 5.0659751 3.7225121 6.9902059 3.7225121.5877651 0 1.1195525-.1259497 1.5813679-.3918434 1.9662141-1.1335469 2.4070379-4.6671345 1.3924435-9.1033613 4.3382659-1.3364658 7.1721332-3.4916044 7.1721332-5.7586982zm-9.1103585-4.6671345c-.2588965.9026392-.5807679 1.8332672-.9446224 2.7638952-.2868854-.5597762-.5877651-1.1195525-.9166337-1.6793287-.3218713-.5597763-.6647343-1.1055581-1.0075972-1.6373456.9936028.1469413 1.9522197.3288686 2.8688533.5527791zm-3.2047191 7.4520213c-.5457818.9446225-1.1055581 1.8402645-1.6863259 2.6729316-1.0425833.0909637-2.099161.1399441-3.1627358.1399441-1.0565777 0-2.1131554-.0489804-3.1487415-.1329468-.5807678-.8326672-1.1475413-1.721312-1.6933231-2.6589372-.5317875-.9166337-1.0145945-1.8472617-1.4554183-2.7848869.4338266-.9376252.9236308-1.8752504 1.4484211-2.7918841.5457818-.9446224 1.1055581-1.8402644 1.6863259-2.67293156 1.0425833-.09096364 2.099161-.13994407 3.1627359-.13994407 1.0565776 0 2.1131553.04898043 3.1487414.13294686.5807678.83266717 1.1475413 1.72131197 1.6933231 2.65893717.5317875.9166336 1.0145945 1.8472617 1.4554183 2.7848869-.4408238.9376252-.9236308 1.8752504-1.4484211 2.791884zm2.2600967-.9096364c.3778489.9376253.6997203 1.8752505.965614 2.7848869-.9166336.2239105-1.8822477.412835-2.8828477.5597762.3428629-.5387846.6857259-1.0915637 1.0075972-1.6583371.3218714-.5597763.6227511-1.1265497.9096365-1.686326zm-7.095164 7.4660158c-.6507399-.6717315-1.3014798-1.4204322-1.9452225-2.239105.6297483.0279888 1.273491.0489804 1.9242309.0489804.657737 0 1.3084769-.0139944 1.9452224-.0489804-.6297483.8186728-1.2804881 1.5673735-1.9242308 2.239105zm-5.2059192-4.1213527c-.9936028-.1469412-1.9522197-.3288685-2.86885328-.552779.25889652-.9026392.58076787-1.8332672.94462238-2.7638953.2868854.5597763.5877651 1.1195526.9166337 1.6793288.3288685.5597763.6647343 1.1055581 1.0075972 1.6373455zm5.1709331-14.56117972c.6507399.6717315 1.3014798 1.42043224 1.9452225 2.23910501-.6297483-.02798881-1.273491-.04898042-1.9242308-.04898042-.6577371 0-1.308477.0139944-1.9452225.04898042.6297483-.81867277 1.2804882-1.56737351 1.9242308-2.23910501zm-5.1779303 4.12135262c-.3428629.5387847-.6857259 1.0915637-1.0075972 1.6583372-.3218714.5597762-.6227511 1.1195525-.9096365 1.6793287-.37784892-.9376252-.69972027-1.8752504-.96561399-2.7848868.91663359-.2169133 1.88224769-.4058378 2.88284769-.5527791zm-6.33246884 8.7604984c-2.47700992-1.0565777-4.07936944-2.4420239-4.07936944-3.5405848 0-1.0985609 1.60235952-2.4910043 4.07936944-3.5405848.60175947-.2588965 1.25949657-.4898042 1.93822527-.7067175.39884058 1.3714518.92363082 2.7988812 1.57437071 4.2612967-.64374269 1.4554183-1.16153572 2.8758505-1.5533791 4.2403051-.69272311-.2169133-1.35046021-.4548182-1.95921688-.7137147zm3.7644953 9.9990033c-.95161963-.5457819-1.36445462-2.6239512-1.04258327-5.2968828.07696923-.6577371.20291889-1.3504602.35685736-2.0571777 1.37145185.3358657 2.86885325.5947622 4.44322395.7626951.9446225 1.2944826 1.9242309 2.4700127 2.9108366 3.4986016-2.2810883 2.1201526-4.4222324 3.2816883-5.8776507 3.2816883-.31487413-.0069972-.58076785-.0699721-.79068394-.1889245zm16.59736584-5.3318688c.3288686 2.6729316-.0769692 4.7511009-1.0215916 5.30388-.2099161.1259496-.482807.1819273-.8046784.1819273-1.448421 0-3.5965624-1.1545386-5.8776506-3.2606967.9796084-1.0285889 1.9592168-2.1971218 2.8898449-3.4916044 1.5813679-.1679329 3.0787694-.4268294 4.4502212-.7696923.1609356.7067175.2868853 1.3854462.3638545 2.0361861zm2.6939232-4.6671345c-.6017594.2588965-1.2594965.4898042-1.9382252.7067175-.3988406-1.3714518-.9236308-2.7988813-1.5743707-4.2612967.6437427-1.4554183 1.1615357-2.8758505 1.5533791-4.2403051.6927231.2169133 1.3504602.4548182 1.9662141.7137147 2.4770099 1.0565777 4.0793694 2.4420239 4.0793694 3.5405848-.0069972 1.0985609-1.6093567 2.4910043-4.0863667 3.5405848z"/>
          <ellipse cx="17.2061226" cy="15.2888889" rx="3.19772184" ry="3.19772184"/>
        </g>
      </g>
      <g fill="#000" font-family="AvenirNext-Bold, Avenir Next" font-size="3.82222222" font-weight="bold">
        <text transform="translate(54.944444 85.761111)">
          <tspan x="0" y="4">Category 1</tspan>
        </text>
        <text transform="translate(82.944444 85.761111)">
          <tspan x=".1888889" y="4">Category 2</tspan>
        </text>
        <text transform="translate(110.944444 85.761111)">
          <tspan x=".3777778" y="4">Category 3</tspan>
        </text>
        <text transform="translate(138.944444 85.761111)">
          <tspan x=".5666667" y="4">Category 4</tspan>
        </text>
      </g>
      <g transform="translate(54.944444 67.605556)">
        <rect width="234.111111" height="10.5111111" fill="#FFF" rx=".95555556"/>
        <text fill="#000" fill-opacity=".25" font-family="AvenirNext-Regular, Avenir Next" font-size="3.82222222" transform="translate(13 2)">
          <tspan x=".3777778" y="4.62777778">Search the technology I use…</tspan>
        </text>
        <path fill="#000" fill-opacity=".25" d="M6.20966685 2.38888889c-1.31572143 0-2.38744463 1.0717232-2.38744463 2.38744463 0 1.31572145 1.0717232 2.38744463 2.38744463 2.38744463.57215302 0 1.09760022-.20317488 1.509406-.54043916l1.42547229 1.42547228c.05988106.0623698.14880154.08749403.23246764.0656831.0836661-.02181094.14900398-.08714882.17081492-.17081492.02181094-.0836661-.0033133-.17258658-.06568309-.23246765L8.05667233 6.28573952c.33726427-.41180579.54043915-.93725299.54043915-1.509406 0-1.31572143-1.07172318-2.38744463-2.38744463-2.38744463zm0 .47748892c1.05766734 0 1.90995571.85228847 1.90995571 1.90995571 0 1.05766734-.85228837 1.9099557-1.90995571 1.9099557-1.05766724 0-1.9099557-.85228836-1.9099557-1.9099557 0-1.05766724.85228846-1.90995571 1.9099557-1.90995571z"/>
      </g>
      <g fill="#000" font-family="AvenirNext-Bold, Avenir Next" font-weight="bold">
        <text font-size="5.73333333" transform="translate(54.944444 51.666667)">
          <tspan x="0" y="6.4111111">Here is a tagline about my blog and why it should interest you</tspan>
        </text>
        <text font-size="11.4666667" transform="translate(54.944444 28.666667)">
          <tspan x="0" y="11">Blog</tspan>
        </text>
      </g>
      <path fill="#212121" d="M0 0h344v17.2H0z"/>
      <g transform="translate(253.222222 3.822222)">
        <rect width="35.8333333" height="9.55555556" fill="#2196F3" rx=".95555556"/>
        <text fill="#FFF" font-family="AvenirNext-Bold, Avenir Next" font-size="3.82222222" font-weight="bold" transform="translate(10 2)">
          <tspan x=".75" y="4.15">Contact</tspan>
        </text>
      </g>
      <path fill="#FFF" d="M59.970498 7.8842788l-.0310504-1.13851738c-.0069001-.17940273.0534758-.327755.1811277-.44505679.127652-.11730179.2777293-.17595268.4502319-.17595268h.0207511c.1724519.0069001.3190791.0724511.4398817.196653.1207518.12420189.1776777.27600421.1707776.45540695l-.0310505 1.08676658-.0310505 1.39727132c0 .08280126-.0103501.17250263-.0310504.26910411-.0207004.09660147-.0517508.18457781-.0931515.26392902-.0414006.07930048-.0966014.14485148-.1656025.196653-.069001.05175077-.1587024.07762617-.2691041.07762617-.2208034-.0069001-.3691556-.09142638-.4450568-.25357885-.0758504-.16215247-.1173018-.3536304-.1242019-.57443377v-.10350157l-.0207003-.5175079-.0207511-.73486121zm-1.6249917 0l-.1035015-1.09711674c-.0138003-.17940274.0396756-.33120506.1604274-.45540695.1207518-.1242019.2708291-.1897529.4502319-.196653.0069001-.00690011.0138002-.01035016.0207003-.01035016.1725026 0 .3191299.05865089.4398817.17595268.1207518.11730179.1845778.262204.1914779.43470664l.0414007 1.14886753.0310504.76592859.0103502.49680759c0 .01374947.001725.02760042.0051751.04134989.00345.01380021.005175.02760042.005175.04140063 0 .08280127-.005175.17250263-.0155252.26910411-.0103501.09660147-.0345005.18457782-.0724511.2638952-.0379506.07935121-.0897014.14664415-.1552524.20187882-.065551.05520087-.1535273.08625127-.263929.09315137-.0138002 0-.0224253.0017251-.0258754.0051751-.00345.0034501-.0120752.0052258-.0258754.0052258-.2139032 0-.3588055-.07935117-.4347066-.23805359-.0759012-.15870242-.1207519-.33810516-.1345521-.53820821 0-.01374948-.00345-.02760042-.0103501-.04140063v-.01029943l-.1138518-1.35595524zm-1.6456751-.52785806c-.0138002-.08280126-.0103501-.1638775.0103502-.24322871.0207003-.07935121.0552008-.15007729.1035016-.21217824.0483007-.06210094.1069516-.11385173.1759527-.15525237.069001-.04140063.1414521-.06900105.2173533-.08280126h.0621009c.1449022 0 .2708291.05347582.3777808.16042745.1069516.10695163.1707776.24322871.1914779.40883124l.0621009.65205995.1449023 1.38692116v.05175079c.0207003.17940274.0069001.33986401-.0414007.48128234-.0483007.14145216-.1725026.22597841-.3726057.25357891-.0138002 0-.0258754.0017588-.0362255.005192-.0103502.0034331-.0224254.0052089-.0362256.0052089-.0966014 0-.1759526-.0224254-.2380536-.067293-.0621009-.04479993-.1138517-.10350156-.1552524-.17590193-.0414006-.07245111-.0724511-.15007729-.0931514-.23289547-.0207003-.08280126-.0379506-.16215247-.0517508-.23805363l-.3001546-1.87336167-.0207003-.12428646zm7.0070739-.04140063c.200103-.03450053.3657055-.00862513.4968075.07762619.131102.08625131.2190784.196653.2638952.33120505.0448507.13455205.0431257.27427918-.005175.41918139-.0483008.14490222-.1483523.26220401-.3001546.35190537-.3519561.20010306-.653785.45023187-.9056388.75038645-.2519046.30015458-.4795574.6158344-.6831612.94703944-.2036038.3312051-.3881309.6606851-.5537334.9884401-.1656026.327755-.3346213.6158344-.507107.8642382-.0759012.1587024-.1880279.2932545-.3364309.4036561-.1483354.1104017-.3639637.1656026-.6468849.1656026h-3.4258684c-.2898045 0-.519233-.1121267-.6882855-.3363802-.1690526-.2243041-.2811793-.4916325-.3363802-.8021879-.0414006-.2208034-.0828012-.4623071-.1242019-.7245111-.0414006-.262204-.0845263-.5347582-.1293769-.81766247-.0448507-.28292123-.0914264-.5675844-.1397272-.85388803-.0483007-.28630363-.0966014-.56063355-.1449022-.82283755l-.579575-3.07396308c-.0138002-.05520085-.0189753-.11557677-.0155252-.18112777.00345-.065551.0155252-.12937697.0362255-.19147792.0207003-.06210095.0569259-.11557676.1086767-.16042745.0517508-.04485068.1190268-.07762618.2018281-.0983265.1794027-.03450052.3139547.00172503.4036561.10867666.0897014.10695163.1518023.21562829.1863029.32602998l.5175078 1.79057732c-.0483007.08970137-.0845262.18630284-.1086766.28980442-.0241504.10350158-.0293255.21390326-.0155252.33120505v.03105048l.331205 1.97691398c.0552008.33120506.1621525.59340906.3208549.78661198.1587024.193203.3691556.2898044.6313596.2898044h.1242019c.0759012-.0137494.1742277-.0447999.2949795-.0931514.1207519-.0482669.2259785-.134552.3156798-.2587539.1104017.1448515.2346036.2397786.3726057.2846293.1380021.0448.262204.067276.3726057.067276h.0724511c.131102-.0069001.258754-.0413668.3829559-.1035015.1242019-.062101.2311535-.1621525.3208718-.3001546.1518023.2691041.4036561.4036561.7555615.4036561.1173356 0 .2328955-.0207003.3467303-.0621009.1138517-.0414006.2173871-.1103848.3105047-.2070032.0931515-.0966014.1707776-.22247762.2328786-.37778072.0621009-.15525237.0966015-.34328024.1035016-.56408361l.020751-.80731232c.0758504.03450053.1621525.03450053.258754 0 .0966014-.03450052.2070031-.11040168.331205-.22770347.2898044-.27600421.5675337-.48990748.8331877-.64170979.2656203-.15181923.4984819-.24497065.698585-.27947118z"/>
    </g>
  </g>
</svg>