<?xml version="1.0" encoding="UTF-8" standalone="no"?>
<svg width="24px" height="24px" viewBox="0 0 24 24" version="1.1" xmlns="http://www.w3.org/2000/svg" xmlns:xlink="http://www.w3.org/1999/xlink">
    <!-- Generator: Sketch 41.2 (35397) - http://www.bohemiancoding.com/sketch -->
    <title>Search Icon</title>
    <desc>Created with Sketch.</desc>
    <defs></defs>
    <g id="Blog-Home-(V2)" stroke="none" stroke-width="1" fill="none" fill-rule="evenodd">
        <g id="Desktop-HD" transform="translate(-246.000000, -293.000000)" fill="#FFFFFF">
            <g id="Search-Bar" transform="translate(230.000000, 283.000000)">
                <path d="M25.9939543,10 C20.4862832,10 16,14.4862832 16,19.9939543 C16,25.5016255 20.4862832,29.9879085 25.9939543,29.9879085 C28.3890134,29.9879085 30.5885598,29.137409 32.312398,27.7256051 L38.2794913,33.6926984 C38.5301562,33.9537812 38.9023814,34.0589524 39.2526116,33.9676508 C39.6028418,33.8763492 39.8763492,33.6028418 39.9676508,33.2526116 C40.0589524,32.9023814 39.9537812,32.5301562 39.6926984,32.2794913 L33.7256051,26.312398 C35.137409,24.5885598 35.9879085,22.3890134 35.9879085,19.9939543 C35.9879085,14.4862832 31.5016255,10 25.9939543,10 Z M25.9939543,11.9987909 C30.4213989,11.9987909 33.9891177,15.56651 33.9891177,19.9939543 C33.9891177,24.4213989 30.4213989,27.9891177 25.9939543,27.9891177 C21.56651,27.9891177 17.9987909,24.4213989 17.9987909,19.9939543 C17.9987909,15.56651 21.56651,11.9987909 25.9939543,11.9987909 Z" id="Search-Icon"></path>
            </g>
        </g>
    </g>
</svg>