<?xml version="1.0" encoding="UTF-8" standalone="no"?>
<svg width="40px" height="34px" viewBox="0 0 40 34" version="1.1" xmlns="http://www.w3.org/2000/svg" xmlns:xlink="http://www.w3.org/1999/xlink">
    <!-- Generator: Sketch 41.2 (35397) - http://www.bohemiancoding.com/sketch -->
    <title>Shaka</title>
    <desc>Created with Sketch.</desc>
    <defs></defs>
    <g id="Contact" stroke="none" stroke-width="1" fill="none" fill-rule="evenodd">
        <g id="Desktop-HD" transform="translate(-230.000000, -19.000000)" fill="#FFFFFF">
            <g id="Navbar">
                <path d="M251.039294,33.0039578 L250.909315,28.2380711 C250.880431,27.4870829 251.133168,26.8660734 251.667525,26.3750427 C252.201882,25.8840119 252.830112,25.6384965 253.552216,25.6384965 L253.639081,25.6384965 C254.360973,25.6673807 254.974761,25.9417802 255.480446,26.4616951 C255.985919,26.98161 256.224214,27.6170616 256.195329,28.3680498 L256.065351,32.9173053 L255.935372,38.766348 C255.935372,39.1129579 255.892046,39.488452 255.805393,39.8928303 C255.718741,40.2972086 255.588762,40.6654816 255.415457,40.9976495 C255.242152,41.329605 255.011079,41.6040045 254.722237,41.8208481 C254.433396,42.0374793 254.057901,42.1457949 253.595755,42.1457949 C252.671462,42.1169108 252.050452,41.7630798 251.732726,41.084302 C251.415213,40.4055242 251.241696,39.6039887 251.212811,38.6796955 L251.212811,38.2464331 L251.126159,36.080121 L251.039294,33.0039578 Z M244.237003,33.0039578 L243.803741,28.4113761 C243.745973,27.6603878 243.969825,27.0249363 244.475298,26.5050214 C244.98077,25.9851065 245.609001,25.7107069 246.359989,25.6818228 C246.388873,25.6529386 246.417757,25.6384965 246.446642,25.6384965 C247.168746,25.6384965 247.782534,25.8840119 248.288007,26.3750427 C248.79348,26.8660734 249.060658,27.4726408 249.089542,28.1947448 L249.262847,33.0039578 L249.392826,36.2101705 L249.436152,38.2898301 C249.436152,38.3473861 249.443373,38.4053668 249.457815,38.4629227 C249.472258,38.520691 249.479479,38.5784594 249.479479,38.6362277 C249.479479,38.9828376 249.457815,39.3583317 249.414489,39.76271 C249.371163,40.1670883 249.270068,40.5353613 249.111206,40.8673876 C248.952343,41.1995554 248.735711,41.4812468 248.461312,41.7124617 C248.186912,41.943535 247.818639,42.0735137 247.356493,42.1023979 C247.298724,42.1023979 247.262619,42.1096189 247.248177,42.124061 C247.233735,42.1385031 247.19763,42.1459365 247.139862,42.1459365 C246.244453,42.1459365 245.637885,41.8137686 245.320159,41.1494329 C245.002434,40.4850972 244.814687,39.734109 244.756918,38.8964683 C244.756918,38.8389124 244.742476,38.7809317 244.713592,38.7231633 L244.713592,38.6800495 L244.237003,33.0039578 Z M237.348131,30.7943194 C237.290362,30.4477094 237.304804,30.1083205 237.391457,29.7761527 C237.478109,29.4439848 237.62253,29.1479222 237.824719,28.8879647 C238.026909,28.6280073 238.272424,28.4113761 238.561266,28.2380711 C238.850107,28.0647661 239.153391,27.9492295 239.471117,27.8914611 L239.731074,27.8914611 C240.337641,27.8914611 240.864777,28.1153134 241.312482,28.5630179 C241.760186,29.0107224 242.027365,29.5811846 242.114017,30.2744045 L242.373975,33.0039578 L242.980542,38.8096742 L242.980542,38.8963267 L242.980542,38.939653 L242.980542,39.0263055 C243.067195,39.7772937 243.009426,40.448992 242.807237,41.0409757 C242.605048,41.633101 242.085133,41.986932 241.247493,42.1024687 C241.189724,42.1024687 241.139177,42.1098313 241.095851,42.1242026 C241.052524,42.1385739 241.001977,42.1460073 240.944209,42.1460073 C240.539831,42.1460073 240.207663,42.0521338 239.947705,41.8643159 C239.687748,41.6767813 239.471117,41.4310535 239.297812,41.1279822 C239.124507,40.8246985 238.994528,40.4997517 238.907875,40.1530709 C238.821223,39.806461 238.749013,39.4742931 238.691244,39.1565674 L237.434783,31.3145883 L237.348131,30.7943194 Z M266.680068,30.6210144 C267.517708,30.4765936 268.210928,30.5849092 268.759727,30.9459612 C269.308526,31.3070133 269.676799,31.7691598 269.864405,32.332401 C270.052152,32.8956421 270.044931,33.4805464 269.842742,34.0871138 C269.640553,34.6936812 269.221732,35.184712 268.586281,35.5602061 C267.112976,36.3978467 265.849506,37.4448976 264.795235,38.7013586 C263.74075,39.9578197 262.787785,41.2792701 261.93549,42.6657098 C261.083195,44.0521496 260.310756,45.4313683 259.617536,46.803366 C258.924316,48.1753637 258.216796,49.3812774 257.494763,50.4211072 C257.177037,51.0854429 256.707669,51.6486841 256.086447,52.1108307 C255.465509,52.5729773 254.562879,52.8040506 253.378557,52.8040506 L239.037713,52.8040506 C237.824578,52.8040506 236.864179,52.3346829 236.156517,51.3959477 C235.448856,50.457 234.979488,49.3379512 234.748415,48.0379515 C234.57511,47.1136583 234.401805,46.1027127 234.2285,45.0051145 C234.055195,43.9075164 233.874669,42.766592 233.686922,41.5823414 C233.499175,40.39802 233.304207,39.2064067 233.102017,38.0079264 C232.899828,36.8094461 232.697639,35.6610882 232.49545,34.5634901 L230.069322,21.6957377 C230.011554,21.4646644 229.989891,21.211928 230.004333,20.9375284 C230.018775,20.6631289 230.069322,20.3959504 230.155974,20.1359929 C230.242627,19.8760355 230.394269,19.6521832 230.6109,19.4644362 C230.827531,19.2766891 231.109152,19.1394894 231.455762,19.0528369 C232.20675,18.9084161 232.769991,19.0600579 233.145485,19.5077624 C233.520979,19.9554669 233.780937,20.4103925 233.925358,20.8725391 L236.09167,28.367979 C235.889481,28.7434731 235.737839,29.1478514 235.636744,29.5811138 C235.53565,30.0143762 235.513986,30.4765228 235.571755,30.9675536 L235.571755,31.0108798 L235.571755,31.0975323 L236.958195,39.3729862 C237.189268,40.759426 237.636972,41.8570241 238.301308,42.6657806 C238.965644,43.4745371 239.846611,43.8789154 240.944209,43.8789154 L241.464124,43.8789154 C241.78185,43.8213595 242.193449,43.6913807 242.698922,43.4889792 C243.204394,43.2869317 243.644878,42.9257381 244.020372,42.4058232 C244.482519,43.0121782 245.002434,43.4095478 245.580117,43.5972948 C246.1578,43.7848295 246.677715,43.8789154 247.139862,43.8789154 L247.443145,43.8789154 C247.991944,43.8500312 248.526301,43.705752 249.046216,43.445653 C249.566131,43.1856955 250.013836,42.7668752 250.389401,42.189192 C251.024852,43.3156743 252.079124,43.8789154 253.552216,43.8789154 C254.043389,43.8789154 254.527127,43.7922629 255.003645,43.618958 C255.480234,43.445653 255.913638,43.1568822 256.303433,42.7524331 C256.693369,42.3480548 257.018316,41.8211313 257.278273,41.1710253 C257.538231,40.5211316 257.682651,39.7340382 257.711535,38.809745 L257.7984,35.4302981 C258.115914,35.5747189 258.477178,35.5747189 258.881556,35.4302981 C259.285935,35.2858773 259.748081,34.9681515 260.267996,34.4771208 C261.481131,33.3217543 262.643718,32.4263453 263.755759,31.7908938 C264.867657,31.1553714 265.842427,30.7654352 266.680068,30.6210144 Z" id="Shaka"></path>
            </g>
        </g>
    </g>
</svg>