<?xml version="1.0" encoding="UTF-8" standalone="no"?>
<svg width="28px" height="28px" viewBox="0 0 28 28" version="1.1" xmlns="http://www.w3.org/2000/svg" xmlns:xlink="http://www.w3.org/1999/xlink">
    <!-- Generator: Sketch 41.2 (35397) - http://www.bohemiancoding.com/sketch -->
    <title>word</title>
    <desc>Created with Sketch.</desc>
    <defs></defs>
    <g id="Home" stroke="none" stroke-width="1" fill="none" fill-rule="evenodd">
        <g id="Desktop-HD" transform="translate(-246.000000, -2090.000000)">
            <g id="word" transform="translate(246.000000, 2090.000000)">
                <g id="svg2">
                    <g id="g3103" transform="translate(0.306271, 0.000000)">
                        <path d="M14.3173333,0 L16.1777778,0 L16.1777778,2.60465116 C19.5066667,2.62418605 22.8324444,2.56883721 26.1582222,2.62418605 C26.8675556,2.54930233 27.4244444,3.1255814 27.3591111,3.86790698 C27.412,10.2818605 27.3466667,16.6990698 27.3902222,23.1130233 C27.3591111,23.7706977 27.4524444,24.5 27.0884444,25.0827907 C26.6342222,25.4213953 26.0462222,25.3790698 25.5173333,25.4051163 C22.4031111,25.3888372 19.292,25.3953488 16.1777778,25.3953488 L16.1777778,28 L14.2333333,28 C9.49822222,27.0948837 4.75066667,26.2646512 0.00622222222,25.3953488 C0.00311111111,17.7995349 0.00622222222,10.2037209 0.00622222222,2.61116279 C4.77555556,1.73860465 9.548,0.888837209 14.3173333,0 Z" id="path6" fill="#2A5699"></path>
                        <path d="M16.1777778,3.58139535 L26.4444444,3.58139535 L26.4444444,24.4186047 L16.1777778,24.4186047 L16.1777778,21.8139535 L24.2666667,21.8139535 L24.2666667,20.5116279 L16.1777778,20.5116279 L16.1777778,18.8837209 L24.2666667,18.8837209 L24.2666667,17.5813953 L16.1777778,17.5813953 L16.1777778,15.9534884 L24.2666667,15.9534884 L24.2666667,14.6511628 L16.1777778,14.6511628 L16.1777778,13.0232558 L24.2666667,13.0232558 L24.2666667,11.7209302 L16.1777778,11.7209302 L16.1777778,10.0930233 L24.2666667,10.0930233 L24.2666667,8.79069767 L16.1777778,8.79069767 L16.1777778,7.1627907 L24.2666667,7.1627907 L24.2666667,5.86046512 L16.1777778,5.86046512 L16.1777778,3.58139535 Z" id="path46" fill="#FFFFFF"></path>
                        <path d="M6.43377778,9.3344186 C7.02488889,9.29860465 7.616,9.27255814 8.20711111,9.24 C8.62088889,11.4376744 9.044,13.632093 9.492,15.82 C9.84355556,13.5604651 10.2324444,11.3074419 10.6088889,9.05116279 C11.2311111,9.02837209 11.8533333,8.99255814 12.4724444,8.95348837 C11.7693333,12.1083721 11.1533333,15.2893023 10.3848889,18.4246512 C9.86533333,18.707907 9.08755556,18.4116279 8.47155556,18.4572093 C8.05777778,16.3018605 7.57555556,14.1595349 7.20533333,11.9944186 C6.84133333,14.0976744 6.36844444,16.1813953 5.95155556,18.2716279 C5.35422222,18.2390698 4.75377778,18.2 4.15333333,18.1576744 C3.63688889,15.2925581 3.03022222,12.4469767 2.548,9.57534884 C3.08,9.54930233 3.61511111,9.52651163 4.14711111,9.50697674 C4.46755556,11.5809302 4.83155556,13.6451163 5.11155556,15.7223256 C5.55022222,13.5930233 5.99822222,11.4637209 6.43377778,9.3344186 L6.43377778,9.3344186 Z" id="path88" fill="#FFFFFF"></path>
                    </g>
                </g>
            </g>
        </g>
    </g>
</svg>